<?xml version="1.0" standalone="no"?>
<!DOCTYPE svg PUBLIC "-//W3C//DTD SVG 1.1//EN" "http://www.w3.org/Graphics/SVG/1.1/DTD/svg11.dtd" >
<svg xmlns="http://www.w3.org/2000/svg">
  <defs>
    <font id="DEPGreek" horiz-adv-x="400">
      <font-face
      font-family="DEP Greek"
      units-per-em="1024"
      ascent="1024"
      descent="0"
      />
      <missing-glyph horiz-adv-x="500" />
      <glyph unicode="A" d="M670.849,681.916C598.008,520.055,573.637,304.265,431.915,308.156C355.047,310.272,298.727,375.945,298.727,494.387C298.727,612.898,353.75,681.916,431.915,681.916C599.851,681.916,579.03,308.156,673.17,308.156C715.973,308.156,726.008,411.989,726.008,411.989"/>
      <glyph unicode="B" d="M361.874,139.878C361.874,139.878,372.182,194.97,372.182,223.573C372.182,223.573,372.182,780.698,372.182,780.698C372.182,835.789,438.81,876.476,493.97,876.476C582.989,876.476,623.745,825.617,623.745,765.747C623.745,634.129,473.285,590.575,473.285,643.959C473.285,707.038,662.793,621.295,662.793,462.507C662.793,359.014,594.049,306.927,522.778,308.156C463.181,309.18,402.492,350.208,372.182,402.773"/>
      <glyph unicode="C" d="M706.62,262.281C706.62,262.281,678.904,139.878,636.579,139.878C571.998,139.878,539.026,302.967,507.213,423.253C475.333,543.607,448.504,681.847,388.088,681.847C345.831,681.847,318.046,558.012,318.046,558.012M642.108,681.847C642.108,681.847,357.3,139.878,357.3,139.878"/>
      <glyph unicode="D" d="M618.761,805.956C601.763,835.379,546.671,876.544,490.078,876.544C428.707,876.544,395.324,852.105,395.324,812.783C395.324,714.615,656.308,674.338,656.308,463.394C656.308,371.712,582.853,303.991,514.245,306.995C437.377,310.409,368.359,359.492,368.359,463.394C368.359,567.296,452.122,653.175,563.602,648.602"/>
      <glyph unicode="E" d="M653.987,390.281C642.45,349.389,602.718,308.156,512.47,308.156C422.017,308.156,370.68,351.3,370.68,413.218C370.68,526.336,569.336,528.657,569.336,504.9C569.336,478.618,370.68,507.29,370.68,598.972C370.68,662.187,430.55,681.847,485.709,681.847C545.989,681.847,595.346,658.022,604.425,615.151"/>
      <glyph unicode="F" d="M514.45,139.878C514.45,139.878,514.45,564.087,514.45,564.087C514.45,623.821,527.83,683.281,579.03,682.189C632.961,680.96,698.701,584.636,698.701,500.19C698.701,406.118,638.49,304.742,514.45,308.156C390.409,311.569,326.034,375.876,326.034,494.387C326.034,612.898,376.483,668.399,459.29,682.189"/>
      <glyph unicode="G" d="M674.398,681.916C627.226,578.082,454.443,141.449,510.354,139.878C566.264,138.308,542.439,365.568,527.966,425.643C513.494,485.649,480.794,681.916,420.378,681.916C364.263,681.916,350.337,558.08,350.337,558.08"/>
      <glyph unicode="H" d="M687.915,139.878C687.915,139.878,673.306,204.39,673.306,250.675C673.306,250.675,673.306,581.769,673.306,581.769C673.306,641.297,638.558,683.349,597.462,683.349C515.542,683.349,445.91,581.769,445.91,581.769M445.91,303.309C445.91,303.309,445.91,581.769,445.91,581.769C445.91,641.297,423.245,683.349,391.297,683.349C335.25,683.349,336.683,578.014,336.683,578.014"/>
      <glyph unicode="I" d="M605.79,375.808C605.79,375.808,596.301,303.377,551.177,303.377C507.077,303.377,484.003,336.896,484.003,372.053C484.003,372.053,484.003,683.418,484.003,683.418C484.003,683.418,418.876,655.497,418.876,655.497"/>
      <glyph unicode="J" d="M492.331,173.261C502.776,161.587,525.645,139.878,552.815,139.878C590.977,139.878,653.645,164.454,653.645,238.182C653.645,346.453,572.203,324.335,528.513,324.335C470.622,324.335,371.09,357.99,371.09,478.276C371.09,598.562,476.289,678.434,537.387,678.434C598.486,678.434,615.894,666.214,634.121,655.701"/>
      <glyph unicode="K" d="M634.735,308.361C634.735,308.361,413.688,495.889,413.688,495.889C413.688,495.889,577.255,646.69,585.447,652.629C593.639,658.569,648.73,687.377,676.037,632.354M413.688,308.361C413.688,308.361,413.688,683.418,413.688,683.418C413.688,683.418,348.562,655.497,348.562,655.497"/>
      <glyph unicode="L" d="M706.62,405.845C706.62,405.845,678.904,308.361,636.579,308.361C571.998,308.361,539.026,497.596,507.213,617.882C475.333,738.236,448.504,876.544,388.088,876.544C345.831,876.544,318.046,752.64,318.046,752.64M507.213,617.882C507.213,617.882,357.3,308.361,357.3,308.361"/>
      <glyph unicode="M" d="M578.757,682.53C578.757,682.53,578.757,404.89,578.757,404.89C578.757,345.361,601.353,303.309,633.37,303.309C689.417,303.309,687.915,408.644,687.915,408.644M351.361,404.89C351.361,345.361,386.04,303.309,427.205,303.309C509.125,303.309,578.757,404.89,578.757,404.89M336.751,139.81C336.751,139.81,351.361,204.39,351.361,250.675C351.361,250.675,351.361,682.53,351.361,682.53"/>
      <glyph unicode="N" d="M642.586,678.571C642.586,678.571,673.033,677.069,671.804,634.47C670.507,589.414,594.117,435.814,526.465,303.309C526.465,303.309,417.921,683.349,417.921,683.349C417.921,683.349,352.794,655.497,352.794,655.497"/>
      <glyph unicode="O" d="M662.588,491.725C662.588,385.024,595.346,303.309,512.333,303.309C429.321,303.309,362.078,385.024,362.078,491.725C362.078,598.426,429.321,683.349,512.333,683.349C595.346,683.349,662.588,598.426,662.588,491.725C662.588,491.725,662.588,491.725,662.588,491.725"/>
      <glyph unicode="P" d="M316.135,588.117C332.382,637.884,381.193,683.349,453.351,683.349C453.351,683.349,708.463,683.349,708.463,683.349M361.123,303.309C405.223,303.309,416.214,337.169,420.651,372.053C420.651,372.053,460.041,683.349,460.041,683.349M705.323,375.808C705.323,375.808,695.834,303.309,650.71,303.309C606.61,303.309,583.535,336.896,583.535,372.053C583.467,478.071,578.62,570.641,594.117,681.438"/>
      <glyph unicode="Q" d="M657.741,571.46C657.741,419.635,592.683,303.377,512.333,303.309C432.052,303.309,366.994,419.635,366.994,571.46M366.994,571.46C366.994,723.285,432.052,844.186,512.333,844.186C592.683,844.186,657.741,723.285,657.741,571.46C657.741,571.46,366.994,571.46,366.994,571.46"/>
      <glyph unicode="R" d="M364.399,139.878C364.399,139.878,379.009,204.39,379.009,250.675C379.009,250.675,379.009,559.514,379.009,559.514C379.009,629.555,450.552,683.349,521.549,683.349C593.025,683.349,660.267,598.426,660.267,491.725C660.267,385.024,602.65,303.309,519.638,303.309C436.694,303.309,379.009,385.024,379.009,491.725"/>
      <glyph unicode="S" d="M447.07,677.137C499.499,678.502,659.38,556.237,659.38,449.604C659.38,342.903,573.159,303.309,490.215,303.309C407.203,303.309,328.423,385.024,328.423,525.585C328.423,629.555,421.129,683.349,492.126,683.349C492.126,683.349,696.312,683.349,696.312,683.349"/>
      <glyph unicode="T" d="M373.82,588.117C390.068,637.884,438.878,683.349,511.036,683.349C511.036,683.349,650.846,683.349,650.846,683.349M647.638,375.808C647.638,375.808,638.149,303.309,593.093,303.309C548.924,303.309,525.918,336.896,525.85,372.053C525.782,478.071,520.935,570.641,536.431,681.438"/>
      <glyph unicode="U" d="M572.408,684.1C572.408,684.1,690.646,663.211,690.646,539.921C690.646,412.877,664.978,305.425,560.12,305.425C436.489,305.425,443.179,488.107,443.179,581.837C443.179,650.854,420.583,684.1,388.634,684.1C332.587,684.1,334.021,578.082,334.021,578.082"/>
      <glyph unicode="V" d="M433.281,243.371C433.281,193.877,423.45,139.878,470.759,139.878C485.368,139.878,509.876,149.914,522.642,162.748M670.849,681.916C598.008,520.055,573.637,304.265,431.915,308.156C355.047,310.272,298.659,375.876,298.659,494.387C298.659,612.898,353.75,681.916,431.915,681.916C599.783,681.916,579.03,308.156,673.101,308.156C715.973,308.156,725.94,411.989,725.94,411.989"/>
      <glyph unicode="W" d="M609.135,684.1C609.135,684.1,727.373,634.334,727.373,511.044C727.373,428.237,727.51,305.425,608.385,305.425C467.892,305.425,493.014,619.315,512.333,619.315C531.721,619.315,556.843,305.425,416.35,305.425C297.157,305.425,297.362,438.818,297.362,511.044C297.362,634.334,415.599,684.1,415.599,684.1"/>
      <glyph unicode="X" d="M496.769,173.261C507.213,161.587,530.083,139.878,557.253,139.878C595.414,139.878,658.083,164.454,658.083,238.182C658.083,346.453,576.641,324.335,532.95,324.335C445.842,324.335,366.584,357.99,366.584,478.276C366.584,598.562,484.754,664.576,545.852,664.576C579.508,664.576,610.706,666.419,613.641,651.742C619.034,624.913,526.055,608.529,465.025,630.784C415.053,649.011,395.256,684.032,393.003,713.933C387.883,782.404,563.192,899.277,578.279,850.466C588.382,817.835,486.119,781.995,425.362,798.993C347.333,820.77,357.3,871.834,432.939,901.461"/>
      <glyph unicode="Y" d="M245.274,689.903C277.837,689.903,353.272,681.643,353.272,582.519C353.272,479.71,369.315,299.349,512.333,299.349C655.352,299.349,671.395,479.71,671.395,582.519C671.395,681.643,746.829,689.903,779.393,689.903M512.333,689.903C512.333,689.903,512.333,122.47,512.333,122.47"/>
      <glyph unicode="Z" d="M489.464,173.261C499.909,161.587,522.778,139.878,549.948,139.878C588.109,139.878,650.778,164.454,650.778,238.182C650.778,346.453,569.336,324.335,525.645,324.335C438.537,324.335,373.889,357.99,373.889,478.276C373.889,538.146,392.798,623.479,429.526,688.811C499.772,813.534,603.333,892.587,623.949,846.985C638.081,815.855,515.405,764.109,454.58,781.107C376.551,802.884,376.073,870.878,454.102,901.461"/>
    </font>
</defs>
</svg>
